<svg width="25" height="25" viewBox="0 0 667 667" fill="none" xmlns="http://www.w3.org/2000/svg">
<path fill-rule="evenodd" clip-rule="evenodd" d="M333.333 666.667C176.198 666.667 97.631 666.667 48.8157 617.85C-3.97364e-06 569.037 0 490.467 0 333.333C0 176.198 -3.97364e-06 97.631 48.8157 48.8157C97.631 -3.97364e-06 176.198 0 333.333 0C490.467 0 569.037 -3.97364e-06 617.85 48.8157C666.667 97.631 666.667 176.198 666.667 333.333C666.667 490.467 666.667 569.037 617.85 617.85C569.037 666.667 490.467 666.667 333.333 666.667ZM232.322 232.322C242.085 222.559 257.914 222.559 267.677 232.322L333.333 297.98L398.987 232.323C408.75 222.56 424.58 222.56 434.343 232.323C444.107 242.086 444.107 257.915 434.343 267.677L368.687 333.333L434.343 398.99C444.107 408.75 444.107 424.58 434.343 434.343C424.58 444.107 408.75 444.107 398.987 434.343L333.333 368.69L267.677 434.343C257.915 444.107 242.085 444.107 232.322 434.343C222.559 424.58 222.559 408.753 232.322 398.99L297.977 333.333L232.322 267.677C222.559 257.915 222.559 242.085 232.322 232.322Z" fill="#1648A8"/>
</svg>
